<?xml version="1.0" standalone="no"?>
<!DOCTYPE svg PUBLIC "-//W3C//DTD SVG 20010904//EN"
 "http://www.w3.org/TR/2001/REC-SVG-20010904/DTD/svg10.dtd">
<svg version="1.0" xmlns="http://www.w3.org/2000/svg"
 width="700.000000pt" height="700.000000pt" viewBox="0 0 700.000000 700.000000"
 preserveAspectRatio="xMidYMid meet">
<metadata>
Created by potrace 1.11, written by Peter Selinger 2001-2013
</metadata>
<g transform="translate(0.000000,700.000000) scale(0.100000,-0.100000)"
fill="#000000" stroke="none">
<path d="M4 6121 c-2 -2 -4 -171 -4 -375 l0 -371 148 1 c118 0 157 -3 196 -17
57 -21 109 -67 137 -121 18 -36 19 -83 19 -1750 0 -1611 -1 -1715 -18 -1747
-24 -48 -78 -88 -139 -103 -32 -9 -108 -13 -197 -13 l-146 0 2 -375 3 -375
998 0 997 0 -2 375 -3 375 -248 0 -247 0 2 1750 3 1749 38 1 c21 1 41 -3 45
-9 5 -6 34 -105 67 -221 32 -115 87 -313 123 -439 35 -127 66 -237 67 -245 2
-9 4 -16 5 -16 1 0 3 -7 5 -15 1 -8 26 -98 55 -200 29 -102 71 -255 95 -340
77 -277 185 -663 204 -730 32 -112 48 -169 111 -395 34 -121 82 -292 106 -380
25 -88 54 -194 65 -235 11 -41 38 -138 60 -215 22 -77 46 -162 53 -190 8 -27
24 -84 36 -125 11 -41 27 -97 35 -125 47 -169 69 -247 86 -305 l19 -65 460 0
c293 0 462 4 468 10 5 6 19 48 32 95 12 47 29 105 36 130 8 25 52 182 99 350
48 168 134 472 192 675 57 204 115 408 128 455 23 84 69 245 105 370 32 110
192 674 194 685 5 19 326 1155 356 1255 11 36 28 98 39 137 11 40 22 76 25 81
3 5 22 8 43 7 l38 -1 0 -1749 0 -1750 -248 0 -247 0 2 -375 3 -375 1248 0
1247 0 -2 375 -3 375 -220 1 c-192 1 -230 4 -298 23 -94 26 -162 59 -200 96
l-27 28 0 1706 c0 1645 1 1707 19 1734 36 56 173 129 282 150 40 8 137 13 257
12 l192 -1 -2 376 -3 375 -1339 0 -1340 0 -163 -570 c-90 -314 -165 -579 -167
-590 -5 -20 -59 -210 -96 -335 -11 -36 -82 -288 -160 -560 -77 -272 -149 -524
-159 -560 -11 -36 -38 -132 -61 -215 -41 -146 -64 -196 -74 -164 -2 8 -56 199
-120 424 -63 226 -208 739 -321 1140 -114 402 -212 753 -220 780 -29 106 -166
592 -175 620 l-10 30 -1291 0 c-710 0 -1292 -2 -1295 -4z"/>
</g>
</svg>
